<?xml version="1.0" encoding="iso-8859-1"?>
<!-- Uploaded to: SVG Repo, www.svgrepo.com, Generator: SVG Repo Mixer Tools -->
<svg height="800px" width="800px" version="1.1" id="Layer_1" xmlns="http://www.w3.org/2000/svg" xmlns:xlink="http://www.w3.org/1999/xlink" 
	 viewBox="0 0 512 512" xml:space="preserve">
<path style="fill:#FFCD54;" d="M512,256.006C512,397.402,397.394,512.004,256.004,512C114.606,512.004,0,397.402,0,256.006
	C-0.007,114.61,114.606,0,256.004,0C397.394,0,512,114.614,512,256.006z"/>
<path style="fill:#F4BA41;" d="M507.242,305.128c-0.241-0.244-0.48-0.492-0.729-0.73c-0.497-0.496-166.166-166.188-166.673-166.674
	c-0.499-0.496-0.983-1.003-1.491-1.489C317.417,115.393,288.256,102.4,256,102.4c-63.522,0-115.2,50.243-115.2,112
	c0,30.29,12.479,57.735,32.652,77.882c0.485,0.502,76.058,76.086,76.148,76.179V403.2c0,2.154,1.132,3.965,2.763,5.125
	c0.416,0.585,87.216,87.385,87.801,87.799c0.345,0.485,0.775,0.868,1.233,1.234C425.795,467.5,489.837,394.669,507.242,305.128z"/>
<path style="fill:#F4F6F9;" d="M371.2,214.4c0-61.756-51.678-112-115.2-112s-115.2,50.244-115.2,112
	c0,59.657,48.261,108.428,108.8,111.684V403.2c0,3.534,2.866,6.4,6.4,6.4c3.534,0,6.4-2.866,6.4-6.4v-77.116
	C322.939,322.828,371.2,274.057,371.2,214.4z M262.4,313.286v-22.636l36.525-36.525c2.5-2.5,2.5-6.55,0-9.05
	c-2.5-2.499-6.55-2.5-9.05,0L262.4,272.55V192c0-3.534-2.866-6.4-6.4-6.4c-3.534,0-6.4,2.866-6.4,6.4v121.286
	c-53.477-3.227-96-46.278-96-98.886c0-54.7,45.937-99.2,102.4-99.2s102.4,44.5,102.4,99.2
	C358.4,267.007,315.877,310.06,262.4,313.286z"/>
</svg>